<mxfile host="65bd71144e">
    <diagram id="UAVEwf911cQEv7-9zqxt" name="Page-1">
        <mxGraphModel dx="535" dy="275" grid="1" gridSize="10" guides="1" tooltips="1" connect="1" arrows="1" fold="1" page="1" pageScale="1" pageWidth="850" pageHeight="1100" math="0" shadow="0">
            <root>
                <mxCell id="0"/>
                <mxCell id="1" parent="0"/>
                <mxCell id="2" value="Main story" style="rounded=0;whiteSpace=wrap;html=1;" parent="1" vertex="1">
                    <mxGeometry x="180" y="140" width="340" height="60" as="geometry"/>
                </mxCell>
                <mxCell id="4" value="All stories" style="rounded=0;whiteSpace=wrap;html=1;" parent="1" vertex="1">
                    <mxGeometry x="180" y="200" width="120" height="170" as="geometry"/>
                </mxCell>
                <mxCell id="5" value="Pictures" style="rounded=0;whiteSpace=wrap;html=1;" parent="1" vertex="1">
                    <mxGeometry x="300" y="200" width="220" height="170" as="geometry"/>
                </mxCell>
                <mxCell id="6" value="Nav" style="rounded=0;whiteSpace=wrap;html=1;" parent="1" vertex="1">
                    <mxGeometry x="180" y="100" width="340" height="40" as="geometry"/>
                </mxCell>
                <mxCell id="7" value="Footer" style="rounded=0;whiteSpace=wrap;html=1;" parent="1" vertex="1">
                    <mxGeometry x="180" y="370" width="340" height="40" as="geometry"/>
                </mxCell>
                <mxCell id="8" value="Main story" style="rounded=0;whiteSpace=wrap;html=1;" parent="1" vertex="1">
                    <mxGeometry x="640" y="140" width="120" height="60" as="geometry"/>
                </mxCell>
                <mxCell id="9" value="All stories" style="rounded=0;whiteSpace=wrap;html=1;" parent="1" vertex="1">
                    <mxGeometry x="640" y="200" width="120" height="170" as="geometry"/>
                </mxCell>
                <mxCell id="11" value="Nav" style="rounded=0;whiteSpace=wrap;html=1;" parent="1" vertex="1">
                    <mxGeometry x="640" y="100" width="120" height="40" as="geometry"/>
                </mxCell>
                <mxCell id="12" value="Footer" style="rounded=0;whiteSpace=wrap;html=1;" parent="1" vertex="1">
                    <mxGeometry x="640" y="370" width="120" height="40" as="geometry"/>
                </mxCell>
                <mxCell id="13" value="" style="shape=flexArrow;endArrow=classic;startArrow=classic;html=1;entryX=-0.025;entryY=0.388;entryDx=0;entryDy=0;entryPerimeter=0;exitX=1.014;exitY=0.388;exitDx=0;exitDy=0;exitPerimeter=0;" parent="1" source="5" target="9" edge="1">
                    <mxGeometry width="100" height="100" relative="1" as="geometry">
                        <mxPoint x="410" y="300" as="sourcePoint"/>
                        <mxPoint x="510" y="200" as="targetPoint"/>
                    </mxGeometry>
                </mxCell>
                <mxCell id="15" value="HOME" style="shape=process;whiteSpace=wrap;html=1;backgroundOutline=1;" parent="1" vertex="1">
                    <mxGeometry x="270" y="70" width="140" height="20" as="geometry"/>
                </mxCell>
                <mxCell id="18" value="Story" style="rounded=0;whiteSpace=wrap;html=1;" parent="1" vertex="1">
                    <mxGeometry x="300" y="550" width="220" height="230" as="geometry"/>
                </mxCell>
                <mxCell id="19" value="Nav" style="rounded=0;whiteSpace=wrap;html=1;" parent="1" vertex="1">
                    <mxGeometry x="180" y="510" width="340" height="40" as="geometry"/>
                </mxCell>
                <mxCell id="20" value="Footer" style="rounded=0;whiteSpace=wrap;html=1;" parent="1" vertex="1">
                    <mxGeometry x="180" y="780" width="340" height="40" as="geometry"/>
                </mxCell>
                <mxCell id="21" value="/story/id" style="shape=process;whiteSpace=wrap;html=1;backgroundOutline=1;" parent="1" vertex="1">
                    <mxGeometry x="270" y="480" width="140" height="20" as="geometry"/>
                </mxCell>
                <mxCell id="22" value="All stories" style="rounded=0;whiteSpace=wrap;html=1;" parent="1" vertex="1">
                    <mxGeometry x="180" y="550" width="120" height="230" as="geometry"/>
                </mxCell>
                <mxCell id="25" value="Story" style="rounded=0;whiteSpace=wrap;html=1;" parent="1" vertex="1">
                    <mxGeometry x="640" y="550" width="120" height="230" as="geometry"/>
                </mxCell>
                <mxCell id="26" value="Nav" style="rounded=0;whiteSpace=wrap;html=1;" parent="1" vertex="1">
                    <mxGeometry x="640" y="510" width="120" height="40" as="geometry"/>
                </mxCell>
                <mxCell id="27" value="Footer" style="rounded=0;whiteSpace=wrap;html=1;" parent="1" vertex="1">
                    <mxGeometry x="640" y="780" width="120" height="40" as="geometry"/>
                </mxCell>
                <mxCell id="28" value="" style="shape=flexArrow;endArrow=classic;startArrow=classic;html=1;entryX=-0.025;entryY=0.388;entryDx=0;entryDy=0;entryPerimeter=0;exitX=1.014;exitY=0.388;exitDx=0;exitDy=0;exitPerimeter=0;" parent="1" target="25" edge="1">
                    <mxGeometry width="100" height="100" relative="1" as="geometry">
                        <mxPoint x="523.0799999999999" y="675.96" as="sourcePoint"/>
                        <mxPoint x="510" y="610" as="targetPoint"/>
                    </mxGeometry>
                </mxCell>
                <mxCell id="30" value="Preview" style="rounded=0;whiteSpace=wrap;html=1;" parent="1" vertex="1">
                    <mxGeometry x="340" y="980" width="180" height="230" as="geometry"/>
                </mxCell>
                <mxCell id="31" value="Inside nav" style="rounded=0;whiteSpace=wrap;html=1;" parent="1" vertex="1">
                    <mxGeometry x="180" y="940" width="340" height="40" as="geometry"/>
                </mxCell>
                <mxCell id="32" value="Footer" style="rounded=0;whiteSpace=wrap;html=1;" parent="1" vertex="1">
                    <mxGeometry x="180" y="1210" width="340" height="40" as="geometry"/>
                </mxCell>
                <mxCell id="33" value="admin/add/story" style="shape=process;whiteSpace=wrap;html=1;backgroundOutline=1;" parent="1" vertex="1">
                    <mxGeometry x="270" y="910" width="140" height="20" as="geometry"/>
                </mxCell>
                <mxCell id="34" value="Story Editor" style="rounded=0;whiteSpace=wrap;html=1;" parent="1" vertex="1">
                    <mxGeometry x="180" y="980" width="160" height="230" as="geometry"/>
                </mxCell>
                <mxCell id="50" value="admin/home" style="shape=process;whiteSpace=wrap;html=1;backgroundOutline=1;" parent="1" vertex="1">
                    <mxGeometry x="270" y="1340" width="140" height="20" as="geometry"/>
                </mxCell>
                <mxCell id="51" value="" style="rounded=0;whiteSpace=wrap;html=1;" parent="1" vertex="1">
                    <mxGeometry x="180" y="1400" width="340" height="230" as="geometry"/>
                </mxCell>
                <mxCell id="52" value="User&lt;br&gt;password" style="rounded=0;whiteSpace=wrap;html=1;" parent="1" vertex="1">
                    <mxGeometry x="280" y="1470" width="120" height="60" as="geometry"/>
                </mxCell>
                <mxCell id="55" value="header" style="rounded=0;whiteSpace=wrap;html=1;" parent="1" vertex="1">
                    <mxGeometry x="580" y="950" width="120" height="60" as="geometry"/>
                </mxCell>
                <mxCell id="56" value="Story" style="rounded=0;whiteSpace=wrap;html=1;" parent="1" vertex="1">
                    <mxGeometry x="580" y="1040" width="120" height="60" as="geometry"/>
                </mxCell>
                <mxCell id="57" value="Picture" style="rounded=0;whiteSpace=wrap;html=1;" parent="1" vertex="1">
                    <mxGeometry x="580" y="1130" width="120" height="60" as="geometry"/>
                </mxCell>
                <mxCell id="58" value="Author" style="rounded=0;whiteSpace=wrap;html=1;" parent="1" vertex="1">
                    <mxGeometry x="580" y="1220" width="120" height="60" as="geometry"/>
                </mxCell>
                <mxCell id="59" value="Header" style="rounded=0;whiteSpace=wrap;html=1;" parent="1" vertex="1">
                    <mxGeometry x="210" y="1710" width="120" height="60" as="geometry"/>
                </mxCell>
                <mxCell id="60" value="Image" style="rounded=0;whiteSpace=wrap;html=1;" parent="1" vertex="1">
                    <mxGeometry x="210" y="1770" width="120" height="60" as="geometry"/>
                </mxCell>
                <mxCell id="61" value="Text" style="rounded=0;whiteSpace=wrap;html=1;" parent="1" vertex="1">
                    <mxGeometry x="210" y="1830" width="120" height="60" as="geometry"/>
                </mxCell>
                <mxCell id="62" value="Author: Date" style="rounded=0;whiteSpace=wrap;html=1;" parent="1" vertex="1">
                    <mxGeometry x="210" y="1890" width="120" height="60" as="geometry"/>
                </mxCell>
            </root>
        </mxGraphModel>
    </diagram>
</mxfile>